<?xml version="1.0" encoding="UTF-8" standalone="no"?>
<!-- Created with Inkscape (http://www.inkscape.org/) -->

<svg
   version="1.1"
   id="svg1136"
   width="500mm"
   height="350mm"
   viewBox="0 0 1889.7638 1322.8347"
   sodipodi:docname="bottom.svg"
   inkscape:version="1.2.2 (1:1.2.2+202212051552+b0a8486541)"
   xmlns:inkscape="http://www.inkscape.org/namespaces/inkscape"
   xmlns:sodipodi="http://sodipodi.sourceforge.net/DTD/sodipodi-0.dtd"
   xmlns="http://www.w3.org/2000/svg"
   xmlns:svg="http://www.w3.org/2000/svg">
  <defs
     id="defs1140">
    <clipPath
       clipPathUnits="userSpaceOnUse"
       id="clipPath1152">
      <path
         d="M 0,792 H 1224 V 0 H 0 Z"
         id="path1150" />
    </clipPath>
    <clipPath
       clipPathUnits="userSpaceOnUse"
       id="clipPath1294">
      <path
         d="M 0,792 H 1224 V 0 H 0 Z"
         id="path1292" />
    </clipPath>
    <clipPath
       clipPathUnits="userSpaceOnUse"
       id="clipPath1322">
      <path
         d="M 0,792 H 1224 V 0 H 0 Z"
         id="path1320" />
    </clipPath>
    <clipPath
       clipPathUnits="userSpaceOnUse"
       id="clipPath1338">
      <path
         d="M 0,792 H 1224 V 0 H 0 Z"
         id="path1336" />
    </clipPath>
    <clipPath
       clipPathUnits="userSpaceOnUse"
       id="clipPath1362">
      <path
         d="M 0,792 H 1224 V 0 H 0 Z"
         id="path1360" />
    </clipPath>
    <clipPath
       clipPathUnits="userSpaceOnUse"
       id="clipPath1402">
      <path
         d="M 0,792 H 1224 V 0 H 0 Z"
         id="path1400" />
    </clipPath>
    <clipPath
       clipPathUnits="userSpaceOnUse"
       id="clipPath1434">
      <path
         d="M 0,792 H 1224 V 0 H 0 Z"
         id="path1432" />
    </clipPath>
    <clipPath
       clipPathUnits="userSpaceOnUse"
       id="clipPath1466">
      <path
         d="M 0,792 H 1224 V 0 H 0 Z"
         id="path1464" />
    </clipPath>
    <clipPath
       clipPathUnits="userSpaceOnUse"
       id="clipPath1554">
      <path
         d="M 0,792 H 1224 V 0 H 0 Z"
         id="path1552" />
    </clipPath>
  </defs>
  <sodipodi:namedview
     id="namedview1138"
     pagecolor="#ffffff"
     bordercolor="#000000"
     borderopacity="0.25"
     inkscape:showpageshadow="2"
     inkscape:pageopacity="0.0"
     inkscape:pagecheckerboard="0"
     inkscape:deskcolor="#d1d1d1"
     showgrid="false"
     inkscape:zoom="0.26382582"
     inkscape:cx="811.14123"
     inkscape:cy="1135.2187"
     inkscape:window-width="1846"
     inkscape:window-height="1016"
     inkscape:window-x="0"
     inkscape:window-y="0"
     inkscape:window-maximized="1"
     inkscape:current-layer="layer1"
     inkscape:document-units="mm">
    <inkscape:page
       x="0"
       y="0"
       id="page1142"
       width="1889.7638"
       height="1322.8347" />
  </sodipodi:namedview>
  <g
     inkscape:groupmode="layer"
     id="layer1"
     inkscape:label="Button"
     transform="matrix(1.0545901,0,0,1.0535735,-57.866633,-18.617411)"
     sodipodi:insensitive="true">
    <path
       style="fill:none;stroke:#ff0000;stroke-width:2.85625;stroke-dasharray:none;stroke-opacity:1"
       d="m 1040.5429,323.18099 h -24.189 l -1.0077,-24.17681 -111.87419,-52.38312 -7.0552,0.50369 -42.3309,13.59947 6.0473,116.85455 43.3388,9.06633 h 7.5591"
       id="path2368" />
    <path
       style="fill:none;stroke:#ff0000;stroke-width:2.85625;stroke-dasharray:none;stroke-opacity:1"
       d="m 1040.5429,323.18099 54.4252,102.24769"
       id="path2370" />
    <path
       style="fill:none;stroke:#ff0000;stroke-width:2.85625;stroke-dasharray:none;stroke-opacity:1"
       d="M 1094.9681,425.42868 H 1260.26 v 218.59863"
       id="path2372" />
    <path
       style="fill:none;stroke:#ff0000;stroke-width:2.85625;stroke-dasharray:none;stroke-opacity:1"
       d="m 911.03111,386.6451 55.9371,29.71729 -5.0397,9.06629 h -164.7876 v 25.1842 l -60.4726,1.51104 -12.3462,6.29606 -8.5671,10.82918 -4.0317,13.34762 1.2602,13.85127 4.5354,9.57 9.5747,9.56999 9.5747,4.53316 30.7404,1.51105 h 29.7322 v 13.59942 l 6.0472,6.04421 v 71.52303 l -6.0472,6.04421 v 25.18419 h -37.2912 l -1.5118,2.77024 -2.5198,3.02209 -7.0553,4.53317 -48.8819,12.84392 h -6.0472 l -5.5434,-2.0147 -4.5355,-3.52582 -3.2753,-5.28867 -1.2602,-5.79236 v -4.53313 -1.51108"
       id="path2375" />
    <path
       style="fill:none;stroke:#0000ff;stroke-width:2.85625;stroke-dasharray:none;stroke-opacity:1"
       d="M 961.92851,425.42868 H 1094.9681"
       id="path2377" />
    <path
       style="fill:none;stroke:#ff0000;stroke-width:2.85625;stroke-dasharray:none;stroke-opacity:1"
       d="m 679.21931,644.02731 h -22.173 v 65.98251 l 1.0077,1.51105 1.5117,0.50369 h 7.8112 l 1.2598,1.00735 0.5041,2.01477 -0.2532,66.73802 -0.7559,1.25923 -1.5118,0.50369 h -7.0553 l -2.2676,1.2592 -0.2533,1.25923 V 921.05323 H 1400.3519 V 786.06605 l -0.7559,-1.76292 -0.7559,-0.75551 h -8.0629 l -1.2597,-0.50369 -1.7639,-2.51843 v -65.98255 l 0.5037,-1.51104 2.0161,-1.00735 h 7.5591 l 1.7635,-1.25923 0.7559,-1.76286 v -64.97516 h -140.0945"
       id="path514" />
    <path
       style="fill:none;stroke:#ff0000;stroke-width:2.85625;stroke-dasharray:none;stroke-opacity:1"
       d="m 950.84201,644.02731 h 155.71689 l -23.6853,44.82779 -1.5118,8.56265 2.2678,5.79232 4.7875,4.78502 6.2993,1.51104 6.8032,-1.00735 10.5827,-4.02947 11.0865,-3.02209 11.5907,-1.51104 5.5431,-0.25185 11.3385,0.25185 11.5908,1.76285 16.3778,4.78501 5.2914,2.26659 5.2913,2.26658 10.0789,6.04417 9.0709,7.0516 8.0629,8.05891 7.5591,8.56264 3.0235,4.78498 3.0237,4.78501 2.5198,5.28867 4.5354,10.57734 3.5275,10.82919 1.5118,5.54052 1.5118,11.58472 v 5.79237 l -0.5038,11.58473 -1.7639,11.33288 -3.2754,11.08099 -2.0159,5.54056 -4.5355,10.07368 -6.0472,10.07361 -7.055,9.06634 -8.0632,8.05894 -9.0709,7.05152 -10.0784,6.04422 -21.1655,9.06633 -5.5434,1.2592 -5.5435,1.2592 -5.7951,0.7555 -11.3386,0.7556 h -5.5434 l -11.5904,-1.5111 -5.5434,-1.2592 -5.5435,-1.2592 -5.543,-2.01474 -5.5435,-2.01473 -5.0393,-2.51843 -5.0395,-2.51843 -5.0393,-3.02209 -5.0392,-3.02213 -8.5671,-7.05152 -4.0317,-4.02947 -4.0312,-4.02947 -7.559,-9.06634 -3.0237,-5.03682 -4.0317,-6.54787 -2.5198,-2.51843 -4.7871,-1.51104 h -9.8268 l -5.5434,10.07368 h -1.5119 l -5.5434,-9.56999 -1.0077,-0.50369 -10.3309,0.25184 -2.2677,0.75554 -2.0157,1.51105 -3.0236,3.02212 -3.0236,5.03679 -3.02359,5.03682 v 0 l -7.0553,9.06634 -4.0312,4.02947 -4.0317,4.02947 -4.5354,3.52578 -4.5354,3.52574 -4.7876,3.02213 -4.7872,3.02209 -5.2913,2.51843 -5.2914,2.51843 -5.2913,2.01473 -10.8348,3.27394 -11.3386,2.0147 -11.5907,0.7555 h -5.7951 l -5.7952,-0.7555 -5.7956,-0.7555 -5.543,-1.2592 -10.8348,-3.27394 -5.2913,-2.01473 -10.5827,-5.03686 -4.7876,-3.02209 -9.3226,-6.54787 -8.5671,-7.55525 -4.0316,-4.02947 -3.5275,-4.53317 -3.5274,-4.53317 -3.0236,-5.03682 -3.0236,-5.03679 -5.0397,-10.07368 -6.0472,-22.16211 -1.0076,-17.37705 v -5.79237 l 1.5118,-11.58472 2.5194,-11.08104 2.016,-5.28867 4.5354,-10.57734 2.5195,-5.28871 3.2757,-4.78497 6.8032,-9.0663 3.5274,-4.28132 8.5671,-8.05891 9.0709,-7.0516 10.0789,-6.04417 10.0784,-4.53317 11.0869,-3.52578 5.5432,-1.25923 11.3385,-1.76285 11.5907,-0.25185 11.5907,1.00735 5.7952,0.75554 11.0865,3.02209 5.2914,2.01473 5.2913,2.01474 4.0316,1.00735 h 4.5355 l 4.0316,-1.51104 3.5274,-3.02209 2.5199,-3.52578 1.2596,-6.29606 -0.2532,-2.26658 -1.0076,-4.02948 z"
       id="path1181" />
    <path
       style="fill:none;stroke:#ff0000;stroke-width:2.85625;stroke-dasharray:none;stroke-opacity:1"
       d="m 970.99951,531.70593 -12.5984,-46.33891 v -3.52578 h 140.09479 v 3.52578 l -12.0945,46.33891 z"
       id="path1183" />
    <path
       style="fill:none;stroke:#ff0000;stroke-width:2.85625;stroke-dasharray:none;stroke-opacity:1"
       d="m 738.68431,473.78229 -0.5042,3.52582 0.2532,1.51104 1.2598,3.02209 2.5198,2.51839 3.2757,1.25924 1.7636,0.25184 3.0235,-0.50369 1.5119,-1.00739 2.5198,-2.51839 1.2597,-3.02209 v -3.27397 l -1.2597,-3.27393 -1.008,-1.51104 -1.5118,-1.00735 -4.5354,-1.51105 -3.5276,0.50366 -3.0235,2.01474 z"
       id="path1239" />
    <path
       style="fill:none;stroke:#0000ff;stroke-width:2.85625;stroke-dasharray:none;stroke-opacity:1"
       d="m 787.56621,450.61288 v 71.01937"
       id="path1967" />
    <path
       style="fill:none;stroke:#0000ff;stroke-width:2.85625;stroke-dasharray:none;stroke-opacity:1"
       d="m 797.14091,450.61288 h 3.0235 v 71.01937 h -3.0235"
       id="path2023" />
    <path
       style="fill:none;stroke:#0000ff;stroke-width:2.85625;stroke-dasharray:none;stroke-opacity:1"
       d="m 797.14091,531.70593 h 173.8586"
       id="path2025" />
    <path
       style="fill:none;stroke:#0000ff;stroke-width:2.85625;stroke-dasharray:none;stroke-opacity:1"
       d="M 1086.4014,531.70593 H 1260.26"
       id="path2027" />
    <path
       style="fill:none;stroke:#0000ff;stroke-width:2.85625;stroke-dasharray:none;stroke-opacity:1"
       d="m 797.14091,644.02731 h 153.7011"
       id="path2029" />
    <path
       style="fill:none;stroke:#0000ff;stroke-width:2.85625;stroke-dasharray:none;stroke-opacity:1"
       d="m 1106.5589,644.02731 h 153.6985"
       id="path2031" />
    <path
       style="fill:none;stroke:#0000ff;stroke-width:2.85625;stroke-dasharray:none;stroke-opacity:1"
       d="M 787.06231,644.02731 V 921.05323"
       id="path2033" />
    <path
       style="fill:none;stroke:#0000ff;stroke-width:2.85625;stroke-dasharray:none;stroke-opacity:1"
       d="M 1269.8347,644.02731 V 921.05323"
       id="path2035" />
    <path
       style="fill:none;stroke:#0000ff;stroke-width:2.85625;stroke-dasharray:none;stroke-opacity:1"
       d="m 896.41681,247.12475 7.0552,139.52035"
       id="path2037" />
    <path
       style="fill:none;stroke:#0000ff;stroke-width:2.85625;stroke-dasharray:none;stroke-opacity:1"
       d="M 911.03111,386.6451 1016.3539,323.18099"
       id="path2039" />
    <path
       style="fill:none;stroke:#0000ff;stroke-width:2.85625;stroke-dasharray:none;stroke-opacity:1"
       d="m 966.96821,416.36239 49.38569,-93.1814"
       id="path2041" />
  </g>
</svg>
