<?xml version="1.0" encoding="UTF-8" standalone="no"?>
<!-- Created with Inkscape (http://www.inkscape.org/) -->

<svg
   version="1.1"
   id="svg1136"
   width="500mm"
   height="350mm"
   viewBox="0 0 1889.7638 1322.8347"
   sodipodi:docname="chassis.svg"
   inkscape:version="1.2.2 (1:1.2.2+202212051552+b0a8486541)"
   xmlns:inkscape="http://www.inkscape.org/namespaces/inkscape"
   xmlns:sodipodi="http://sodipodi.sourceforge.net/DTD/sodipodi-0.dtd"
   xmlns="http://www.w3.org/2000/svg"
   xmlns:svg="http://www.w3.org/2000/svg">
  <defs
     id="defs1140">
    <clipPath
       clipPathUnits="userSpaceOnUse"
       id="clipPath1152">
      <path
         d="M 0,792 H 1224 V 0 H 0 Z"
         id="path1150" />
    </clipPath>
    <clipPath
       clipPathUnits="userSpaceOnUse"
       id="clipPath1294">
      <path
         d="M 0,792 H 1224 V 0 H 0 Z"
         id="path1292" />
    </clipPath>
    <clipPath
       clipPathUnits="userSpaceOnUse"
       id="clipPath1322">
      <path
         d="M 0,792 H 1224 V 0 H 0 Z"
         id="path1320" />
    </clipPath>
    <clipPath
       clipPathUnits="userSpaceOnUse"
       id="clipPath1338">
      <path
         d="M 0,792 H 1224 V 0 H 0 Z"
         id="path1336" />
    </clipPath>
    <clipPath
       clipPathUnits="userSpaceOnUse"
       id="clipPath1362">
      <path
         d="M 0,792 H 1224 V 0 H 0 Z"
         id="path1360" />
    </clipPath>
    <clipPath
       clipPathUnits="userSpaceOnUse"
       id="clipPath1402">
      <path
         d="M 0,792 H 1224 V 0 H 0 Z"
         id="path1400" />
    </clipPath>
    <clipPath
       clipPathUnits="userSpaceOnUse"
       id="clipPath1434">
      <path
         d="M 0,792 H 1224 V 0 H 0 Z"
         id="path1432" />
    </clipPath>
    <clipPath
       clipPathUnits="userSpaceOnUse"
       id="clipPath1466">
      <path
         d="M 0,792 H 1224 V 0 H 0 Z"
         id="path1464" />
    </clipPath>
    <clipPath
       clipPathUnits="userSpaceOnUse"
       id="clipPath1554">
      <path
         d="M 0,792 H 1224 V 0 H 0 Z"
         id="path1552" />
    </clipPath>
  </defs>
  <sodipodi:namedview
     id="namedview1138"
     pagecolor="#ffffff"
     bordercolor="#000000"
     borderopacity="0.25"
     inkscape:showpageshadow="2"
     inkscape:pageopacity="0.0"
     inkscape:pagecheckerboard="0"
     inkscape:deskcolor="#d1d1d1"
     showgrid="false"
     inkscape:zoom="0.26382582"
     inkscape:cx="1717.0419"
     inkscape:cy="1135.2187"
     inkscape:window-width="1846"
     inkscape:window-height="1016"
     inkscape:window-x="0"
     inkscape:window-y="0"
     inkscape:window-maximized="1"
     inkscape:current-layer="layer3"
     inkscape:document-units="mm">
    <inkscape:page
       x="0"
       y="0"
       id="page1142"
       width="1889.7638"
       height="1322.8347" />
  </sodipodi:namedview>
  <g
     id="g1144"
     inkscape:groupmode="layer"
     inkscape:label="Page 1"
     transform="matrix(1.3333333,0,0,-1.3333333,0,1056)" />
  <g
     inkscape:groupmode="layer"
     id="layer1"
     inkscape:label="Button"
     transform="matrix(1.0545901,0,0,1.0535735,-57.866633,-18.617411)" />
  <g
     inkscape:groupmode="layer"
     id="layer2"
     inkscape:label="Flaps" />
  <g
     inkscape:groupmode="layer"
     id="layer3"
     inkscape:label="chassis">
    <path
       style="fill:none;stroke:#ff0000;stroke-width:3.01535;stroke-opacity:1"
       d="M 729.09809,-55.500915 H 1238.4444 V 235.54245 l 1.3291,2.66034 2.3926,2.1283 2.6584,2.66034 0.5316,2.66039 v 31.9243 h -56.3577 l -7.9751,1.0641 -7.9752,2.12834 -6.9118,3.72449 -9.0385,7.71502 -6.9118,9.84333 -3.19,7.44902 -1.5951,11.43952 0.7975,7.98107 0.7976,3.99054 3.19,7.44902 4.2534,6.91693 2.6584,2.92643 5.8485,5.32069 3.19,2.39434 3.4559,1.86225 3.4559,1.86224 7.9752,2.12833 3.9875,0.26633 3.9876,0.26633 h 56.3577 v 36.71293 h 29.7739 l 0.5317,6.38488 0.5317,5.32069 1.595,3.72453 3.9876,4.52259 5.0509,3.45849 7.9751,1.59624 4.2535,-0.5321 51.041,-13.83385 2.9241,-1.5962 3.1901,-2.39434 3.4559,-4.52263 1.0634,-2.1283 h 35.0907 v 299.55639 h -150.4646 v 170.263 l -3.4559,4.2566 -2.1267,6.3849 0.7976,6.9169 2.1267,4.7886 6.1142,5.8529 6.6459,10.6414 2.1268,5.8528 1.0633,8.5131 v 344.78254 l -0.5316,4.7887 -4.7851,9.5773 -4.7851,4.7886 -6.3801,2.6604 -6.3802,1.0641 -51.8384,0.2663 -14.6211,2.9264 -9.0385,3.7245 -7.9752,4.7887 -7.4434,6.3849 -6.3802,7.4489 -7.1776,13.0358 -3.9876,14.0999 -0.5317,9.5773 -1.3291,12.7697 -2.9243,6.3849 -5.8484,6.3848 -8.5068,3.1925 -4.2535,0.5321 H 732.28814 l -6.91182,-1.3302 -5.84841,-2.3944 -4.7851,-4.7886 -2.65839,-3.7245 -2.39256,-8.5131 -0.49525,-6.2983 0.22929,-433.45914 0.79751,-5.8528 2.6584,-8.5131 4.25342,-6.6509 3.45588,-4.2566 4.25342,-4.2566 2.6584,-4.7886 1.06333,-5.3208 -0.53166,-3.1924 -3.19007,-6.3848 -2.12669,-2.6604 v -170.263 H 572.25327 V 401.01765 H 722.71784 V 245.6527 l 0.53167,-2.66039 0.53166,-0.53205 4.25343,-4.25659 1.06337,-1.59623 z"
       id="path1215" />
    <path
       style="fill:none;stroke:#ff0000;stroke-width:3.01535;stroke-opacity:1"
       d="m 898.17125,244.05558 28.71054,-53.73928 1.59502,-4.78863 -0.79751,-6.65089 -2.12669,-4.25658 -6.91179,-5.32069 -6.64596,-1.33023 -10.3677,3.45848 -5.58261,2.39434 -11.69687,2.66039 -12.22858,1.59619 -6.11427,0.26633 -17.81119,-0.7981 -6.11427,-1.33019 -6.11427,-1.33015 -5.84845,-1.86225 -11.16521,-4.25662 -10.63355,-5.58674 -5.31675,-3.19244 -4.78509,-3.72449 -4.78509,-3.72449 -4.25343,-4.25658 -8.24096,-8.77918 -3.98758,-4.52259 -3.19006,-5.05472 -3.19006,-5.05469 -2.92425,-5.58673 -2.92421,-5.58678 -4.25343,-11.17351 -1.32918,-5.852751 -1.32917,-5.85282 -1.59503,-12.23766 v -12.23762 l 0.53166,-6.11883 1.86088,-11.97161 1.32918,-5.85282 3.72173,-11.17352 5.31678,-11.17351 3.19007,-5.32073 3.19006,-5.3207296 3.72172,-4.52259 3.72172,-4.52262999 4.25344,-4.52263001 4.25342,-4.52259 4.78509,-3.7244904 4.7851,-3.724534 5.0509,-3.19244 10.63354,-5.85274 11.16522,-4.78868 11.69686,-3.45845 6.11431,-1.33019 5.84843,-0.7981 11.96272,-0.7981 12.22858,0.7981 11.96272,2.12829 5.84843,1.33016 11.69691,4.25658 10.63351,5.32069 5.05094,3.19244 9.83604,6.916974 4.78508,3.7244904 8.50682,9.04522001 3.72172,4.78867999 3.72177,4.78863 6.38012,10.1093696 2.65835,2.92635 5.05094,2.66039 11.96273,0.26632 6.38012,-11.17351 7.97515,11.17351 h 8.50684 l 5.8484,-1.5962 3.7218,-3.72453 3.7217,-5.58677 3.1901,-5.0546496 3.7217,-4.78863 3.7217,-4.78867999 4.2535,-4.52263001 4.2534,-4.52259 4.5192,-3.7244904 4.5193,-3.724534 5.3168,-3.19244 5.3167,-3.19244 5.3168,-2.66031 5.3168,-2.66038 5.8484,-2.12829 5.8484,-2.12829 5.8485,-1.33016 11.9627,-2.12829 6.1143,-0.7981 h 12.2285 l 5.8485,0.7981 11.9627,2.12829 11.6969,3.45845 5.5826,2.12829 11.1652,5.32069 5.0509,3.19244 5.051,3.19244 9.5702,7.4490244 4.2534,4.52259 4.2534,4.52263001 7.4435,9.04521999 3.19,5.3207296 3.1901,5.32073 4.7851,11.17347 2.1267,5.58682 3.4559,11.43956 1.8608,11.97161 0.5317,6.11883 v 6.11879 6.11883 l -1.595,12.23766 -1.595,5.85282 -3.4559,11.439521 -4.7851,11.17352 -6.1143,10.64142 -7.1776,9.57731 -8.241,8.77918 -4.2535,4.25658 -9.5701,7.44898 -10.6336,6.38488 -5.5826,2.3943 -11.1652,4.25662 -5.5826,1.86225 -6.1143,1.33015 -6.1143,1.33019 -5.8484,0.53209 -11.9627,0.26633 -12.2286,-1.06411 -6.1142,-0.79813 -11.697,-2.66035 -5.5826,-2.39434 -7.9751,-2.92639 h -6.646 l -6.6459,2.92639 -3.9876,5.05469 -1.595,6.91692 1.595,6.91693 28.7105,53.73928 z"
       id="path1217" />
    <path
       style="fill:none;stroke:#ff0000;stroke-width:3.01535;stroke-opacity:1"
       d="m 608.1416,630.8718 1.32918,-7.1829 4.25342,-10.3754 2.1267,-2.9265 7.44348,-7.715 9.83601,-5.0547 6.91186,-2.1282 h 14.62108 l 10.10188,3.4584 6.38013,3.7245 5.31674,4.7886 6.11427,9.3113 2.6584,6.917 1.32918,7.1829 -0.53166,10.6414 -1.59503,6.917 -3.72173,6.9169 -4.25343,5.8528 -8.50681,6.6509 -6.38012,3.1924 -14.35527,2.9265 -7.17763,-0.7982 -3.45591,-0.7981 -6.91183,-2.6603 -6.38013,-3.7245 -2.65839,-2.3943 -2.65839,-2.3944 -4.2534,-5.8528 -3.19005,-6.9169 -2.12673,-6.917 z"
       id="path1219" />
    <path
       style="fill:none;stroke:#ff0000;stroke-width:3.01535;stroke-opacity:1"
       d="m 1324.0443,594.691 14.3553,4.2565 5.8484,3.7245 7.9751,7.715 5.3169,9.8434 2.3925,10.6414 -0.266,10.6414 -3.7217,10.3754 -5.8485,9.3113 -8.7727,6.6509 -9.836,4.5226 -10.8994,1.5963 -7.1775,-0.7982 -10.6336,-3.4584 -5.8485,-3.7245 -5.3167,-4.7887 -4.7851,-5.8528 -4.2534,-10.3754 -1.595,-10.3754 0.5316,-7.449 2.1267,-6.9169 3.1901,-6.9169 4.7851,-5.8529 8.241,-6.6508 9.836,-4.5226 10.8993,-1.5962 z"
       id="path1221" />
    <path
       style="fill:none;stroke:#ff0000;stroke-width:3.01535;stroke-opacity:1"
       d="m 812.57132,528.18196 6.38012,-6.91693 11.43106,-8.51316 12.49439,-6.38484 18.077,-3.19244 9.57018,0.53206 9.03852,1.59623 9.03852,3.1924 7.9751,4.25659 7.97516,5.32073 6.38011,6.38487 8.24101,11.43956 2.39254,3.99054 4.25343,13.56781 1.32918,9.04518 -0.26597,14.09995 -3.72172,13.56785 -3.98758,8.51314 -5.31676,7.715 -6.11431,6.917 -7.17763,5.8527 -7.97511,4.7887 -8.50686,3.7245 -4.51923,1.5962 -9.03852,1.5962 -9.57018,0.5321 -9.03848,-1.0642 -9.03852,-2.1282 -8.50681,-3.7245 -7.97515,-5.3208 -7.44349,-5.8527 -3.19006,-3.4585 -5.58261,-7.449 -2.39254,-3.9906 -4.25344,-7.98103 -2.65834,-9.04523 -1.59504,-9.57727 v -4.52263 -4.52259 l 1.59504,-9.57731 1.32918,-4.5226 3.45591,-8.51316 2.12669,-3.99054 z"
       id="path1223" />
    <path
       style="fill:none;stroke:#ff0000;stroke-width:3.01535;stroke-opacity:1"
       d="m 1071.232,512.75187 8.241,-4.52263 13.2919,-3.99054 14.0895,-0.7981 9.3043,1.06415 9.0385,2.39433 8.5069,3.72449 4.2533,2.1283 7.4435,5.32073 6.9118,6.38487 5.8485,7.44899 4.2534,7.98111 4.5192,13.56781 1.8609,13.56785 -1.0634,9.57728 -1.595,9.04522 -1.8609,4.52263 -3.9875,8.51314 -5.0509,7.715 -6.3802,6.917 -7.1776,5.8527 -7.9751,4.7887 -4.2535,2.1283 -8.5068,3.1924 -9.5702,1.5962 -4.5192,0.2663 -9.3044,-0.2663 -4.7851,-0.5321 -9.0384,-2.1282 -8.5069,-3.7245 -3.9876,-2.6604 -7.4434,-5.5867 -3.4559,-2.9264 -6.3802,-6.917 -2.6584,-3.9905 -4.5192,-7.9811 -1.8609,-3.99053 -2.6583,-9.04523 -0.7975,-4.78863 -0.7976,-4.78864 v -9.04522 l 0.7976,-4.78868 0.7975,-4.78863 1.3291,-4.5226 1.3292,-4.52263 3.7218,-7.98107 2.6583,-3.99054 2.6584,-3.99054 6.3802,-6.91693 3.4559,-2.92639 3.4559,-2.92643 z"
       id="path1225" />
    <path
       style="fill:none;stroke:#ff0000;stroke-width:3.01535;stroke-opacity:1"
       d="m 900.29798,706.95806 52.10429,-126.10101 3.72177,-6.38483 4.78508,-5.85279 9.03849,-5.58673 6.91182,-2.12834 10.6335,-0.7981 7.44349,1.5962 3.19006,1.33024 6.11432,3.45844 7.7093,7.98108 3.1901,6.38483 52.6359,126.10101 -5.3167,11.7055 -3.1901,9.0453 -2.9242,9.0452 -3.9876,11.4395 -2.1267,5.5868 -4.7851,11.1735 -5.3168,11.1735 -2.9242,5.5868 -6.1142,10.6414 -3.1901,5.0547 -3.1901,5.3207 -3.19,5.3207 -3.7218,5.0547 -3.7217,5.0547 -5.3168,5.3207 -5.8484,4.7887 -7.44351,3.1924 -3.72173,0.7981 -11.69688,0.7981 -3.72175,-0.7981 -7.44345,-2.3943 -6.91183,-3.9906 -3.19006,-2.3943 -5.31675,-5.3207 -3.45591,-5.0547 -6.64594,-10.3754 -3.19006,-5.3207 -3.19006,-5.0547 -3.19006,-5.0547 -2.92425,-5.5867 -5.5826,-11.1735 -2.65836,-5.5868 -2.39254,-5.5867 -2.39255,-5.5868 -4.25343,-11.1735 -2.12669,-5.8528 -2.12673,-5.8528 -2.65836,-9.0452 -2.92425,-7.449 -2.65836,-5.8528 z"
       id="path1227" />
    <path
       style="fill:none;stroke:#0000ff;stroke-width:3.01535;stroke-opacity:1"
       d="m 723.78129,242.99143 174.38996,1.06415"
       id="path1229" />
    <path
       style="fill:none;stroke:#0000ff;stroke-width:3.01535;stroke-opacity:1"
       d="m 1069.9028,244.05602 174.9217,-4.4e-4"
       id="path1339" />
    <path
       style="fill:none;stroke:#0000ff;stroke-width:3.01535;stroke-opacity:1"
       d="M 722.71796,394.63194 H 1245.3561"
       id="path1341" />
    <path
       style="fill:none;stroke:#0000ff;stroke-width:3.01535;stroke-opacity:1"
       d="M 722.71784,401.01717 V 700.57356"
       id="path1343" />
    <path
       style="fill:none;stroke:#0000ff;stroke-width:3.01535;stroke-opacity:1"
       d="M 722.71796,706.95806 H 900.29798"
       id="path1345" />
    <path
       style="fill:none;stroke:#0000ff;stroke-width:3.01535;stroke-opacity:1"
       d="m 1067.7761,706.95806 h 177.58"
       id="path1347" />
    <path
       style="fill:none;stroke:#0000ff;stroke-width:3.01535;stroke-opacity:1"
       d="M 1245.3561,401.01705 V 700.57316"
       id="path1349" />
    <path
       style="fill:none;stroke:#0000ff;stroke-width:3.01535;stroke-opacity:1"
       d="M 716.86951,902.22836 H 1251.2045"
       id="path1351" />
    <path
       style="fill:none;stroke:#0000ff;stroke-width:3.01535;stroke-opacity:1"
       d="M 709.42602,1232.113 H 1258.648"
       id="path1353" />
  </g>
</svg>
