<?xml version="1.0" encoding="UTF-8" standalone="no"?>
<!-- Created with Inkscape (http://www.inkscape.org/) -->

<svg
   version="1.1"
   id="svg1136"
   width="500mm"
   height="350mm"
   viewBox="0 0 1889.7638 1322.8347"
   sodipodi:docname="Flaps.svg"
   inkscape:version="1.2.2 (1:1.2.2+202212051552+b0a8486541)"
   xmlns:inkscape="http://www.inkscape.org/namespaces/inkscape"
   xmlns:sodipodi="http://sodipodi.sourceforge.net/DTD/sodipodi-0.dtd"
   xmlns="http://www.w3.org/2000/svg"
   xmlns:svg="http://www.w3.org/2000/svg">
  <defs
     id="defs1140">
    <clipPath
       clipPathUnits="userSpaceOnUse"
       id="clipPath1152">
      <path
         d="M 0,792 H 1224 V 0 H 0 Z"
         id="path1150" />
    </clipPath>
    <clipPath
       clipPathUnits="userSpaceOnUse"
       id="clipPath1294">
      <path
         d="M 0,792 H 1224 V 0 H 0 Z"
         id="path1292" />
    </clipPath>
    <clipPath
       clipPathUnits="userSpaceOnUse"
       id="clipPath1322">
      <path
         d="M 0,792 H 1224 V 0 H 0 Z"
         id="path1320" />
    </clipPath>
    <clipPath
       clipPathUnits="userSpaceOnUse"
       id="clipPath1338">
      <path
         d="M 0,792 H 1224 V 0 H 0 Z"
         id="path1336" />
    </clipPath>
    <clipPath
       clipPathUnits="userSpaceOnUse"
       id="clipPath1362">
      <path
         d="M 0,792 H 1224 V 0 H 0 Z"
         id="path1360" />
    </clipPath>
    <clipPath
       clipPathUnits="userSpaceOnUse"
       id="clipPath1402">
      <path
         d="M 0,792 H 1224 V 0 H 0 Z"
         id="path1400" />
    </clipPath>
    <clipPath
       clipPathUnits="userSpaceOnUse"
       id="clipPath1434">
      <path
         d="M 0,792 H 1224 V 0 H 0 Z"
         id="path1432" />
    </clipPath>
    <clipPath
       clipPathUnits="userSpaceOnUse"
       id="clipPath1466">
      <path
         d="M 0,792 H 1224 V 0 H 0 Z"
         id="path1464" />
    </clipPath>
    <clipPath
       clipPathUnits="userSpaceOnUse"
       id="clipPath1554">
      <path
         d="M 0,792 H 1224 V 0 H 0 Z"
         id="path1552" />
    </clipPath>
  </defs>
  <sodipodi:namedview
     id="namedview1138"
     pagecolor="#ffffff"
     bordercolor="#000000"
     borderopacity="0.25"
     inkscape:showpageshadow="2"
     inkscape:pageopacity="0.0"
     inkscape:pagecheckerboard="0"
     inkscape:deskcolor="#d1d1d1"
     showgrid="false"
     inkscape:zoom="0.26382582"
     inkscape:cx="598.87998"
     inkscape:cy="1131.4283"
     inkscape:window-width="1846"
     inkscape:window-height="1016"
     inkscape:window-x="0"
     inkscape:window-y="0"
     inkscape:window-maximized="1"
     inkscape:current-layer="layer1"
     inkscape:document-units="mm">
    <inkscape:page
       x="0"
       y="0"
       id="page1142"
       width="1889.7638"
       height="1322.8347" />
  </sodipodi:namedview>
  <g
     id="g1144"
     inkscape:groupmode="layer"
     inkscape:label="Page 1"
     transform="matrix(1.3333333,0,0,-1.3333333,0,1056)" />
  <g
     inkscape:groupmode="layer"
     id="layer1"
     inkscape:label="Button"
     transform="matrix(1.0545901,0,0,1.0535735,-57.866633,-18.617411)" />
  <g
     inkscape:groupmode="layer"
     id="layer2"
     inkscape:label="Flaps"
     sodipodi:insensitive="true">
    <path
       style="fill:none;stroke:#0000ff;stroke-width:3.01716;stroke-dasharray:none;stroke-opacity:1"
       d="M 616.58091,241.07375 H 1113.6481"
       id="path2291" />
    <path
       style="fill:none;stroke:#0000ff;stroke-width:3.01716;stroke-dasharray:none;stroke-opacity:1"
       d="m 616.58091,540.69785 h 170.8336"
       id="path2293" />
    <path
       style="fill:none;stroke:#0000ff;stroke-width:3.01716;stroke-dasharray:none;stroke-opacity:1"
       d="m 943.34681,541.23005 170.30129,-0.5322"
       id="path2295" />
    <path
       style="fill:none;stroke:#0000ff;stroke-width:3.01716;stroke-dasharray:none;stroke-opacity:1"
       d="M 616.58091,691.30815 H 1113.6481"
       id="path2297" />
    <path
       style="fill:none;stroke:#0000ff;stroke-width:3.01716;stroke-dasharray:none;stroke-opacity:1"
       d="m 603.8083,1003.705 h 522.6125"
       id="path2299" />
    <path
       style="fill:none;stroke:#0000ff;stroke-width:3.01716;stroke-dasharray:none;stroke-opacity:1"
       d="m 1134.4036,1003.705 v 40.4465"
       id="path2301" />
    <path
       style="fill:none;stroke:#0000ff;stroke-width:3.01716;stroke-dasharray:none;stroke-opacity:1"
       d="m 1134.4036,1130.8988 v 174.559"
       id="path2303" />
    <path
       style="fill:none;stroke:#0000ff;stroke-width:3.01716;stroke-dasharray:none;stroke-opacity:1"
       d="m 595.82542,1003.705 v 301.7528"
       id="path2305" />
    <path
       style="fill:none;stroke:#ff0000;stroke-width:3.01716;stroke-dasharray:none;stroke-opacity:1"
       d="m 688.42691,43.630453 -3.7254,8.5151 -2.661,9.0472 -1.5965,9.5795 v 9.0473 l 2.927,13.837 5.0559,12.772597 5.3218,7.9829 9.8456,9.8455 7.4506,5.588 12.5066,5.8542 9.0472,2.6609 14.1031,0.7983 14.1032,-1.8627 12.7725,-5.3219 4.2576,-2.1288 7.4507,-5.3219 6.9185,-6.3863 5.854,-7.4507 4.2576,-7.9829 3.7253,-9.047197 0.7983,-4.5237 1.8627,-14.103 -1.0643,-9.0473 -3.4593,-13.5709 -1.8627,-4.5236 -4.2576,-7.9829 -9.3133,-10.6439 -7.1846,-5.8541 -7.9829,-5.0558 -17.5623,-5.8541 -9.3134,-1.0644 -14.1031,0.7983 -9.0472,2.1288 -12.5066,6.1202 -7.4506,5.588 -6.6524,6.6524 z"
       id="path2307" />
    <path
       style="fill:none;stroke:#ff0000;stroke-width:3.01716;stroke-dasharray:none;stroke-opacity:1"
       d="m 938.02491,32.720553 6.9185,-6.6524 7.7168,-5.588 8.2489,-4.2576 13.3049,-3.9914 9.04723,-1.0644 9.5795,0.5322 13.57086,2.9271 8.7811,3.7253 11.7083,7.7168 12.2403,13.837 6.3863,12.5065 3.7253,13.5709 0.2663,13.837 -2.3949,13.837 -5.588,13.038697 -8.249,11.4421 -13.8369,11.7082 -17.5623,7.4507 -18.62676,2.1288 -9.04723,-1.0644 -13.3048,-4.2575 -8.2489,-4.2576 -7.7168,-5.588 -6.9185,-6.3863 -5.5881,-7.4507 -4.5236,-8.249 -4.7897,-12.772597 -1.0644,-9.5794 v -4.5236 l 0.5322,-9.3134 1.8626,-9.3134 5.5881,-13.0387 2.3948,-3.7253 z"
       id="path2446" />
    <path
       style="fill:none;stroke:#ff0000;stroke-width:3.01716;stroke-dasharray:none;stroke-opacity:1"
       d="m 616.58091,-50.567547 h 176.6878 l 47.3651,113.0909 1.5965,2.927 2.1288,2.3949 2.1288,2.3948 2.927,1.8627 2.927,1.8627 3.1932,1.0644 3.1932,1.0643 3.1931,0.5322 3.1932,0.5322 3.1931,-0.5322 3.1932,-0.5322 6.3862,-2.1287 2.9271,-1.8627 2.9271,-1.8627 2.1287,-2.3948 2.1288,-2.3949 1.5966,-2.927 1.5966,-2.9271 45.7685,-110.1638 h 176.68759 v 144.7563 h 6.3863 v 75.571197 h -6.3863 v 143.1597 h 6.3863 v 75.5713 h -6.3863 v 302.8172 h 12.7727 V 1003.705 h 319.3152 l 4.2575,2.1287 2.3949,1.8626 1.8626,2.9271 0.5322,4.2575 v 280.4653 l -1.5966,5.3219 -1.5965,1.5965 -3.7253,2.661 -3.1932,0.5322 -330.2252,-0.2662 -3.4592,-2.3949 -2.3948,-2.927 -3.9915,-7.7168 -3.7253,-6.9185 -4.2576,-6.6524 -8.7812,-13.0387 -9.5794,-12.2404 -5.0559,-5.8542 -11.176,-11.7081 -11.7082,-10.1117 -12.2404,-10.1117 -6.6523,-4.2575 -6.6524,-4.2576 -9.0473,-5.3218 -9.0472,-5.322 -9.31336,-4.5236 -19.1589,-8.5151 -9.84563,-3.9914 -10.1116,-3.1932 -10.1117,-3.1931 -10.1116,-2.661 -10.1117,-2.661 -10.3777,-1.8626 -20.7555,-2.927 -21.0216,-1.3306 -10.6438,-0.2662 -10.6438,0.2662 -10.6439,0.2663 -10.3777,1.0644 -10.3778,1.0643 -20.7555,3.7254 -20.2233,5.3219 -20.2233,6.3863 -9.8455,3.9914 -19.159,8.5151 -9.3133,4.5236 -18.0945,10.6438 -13.3048,8.5152 -12.2405,10.1116 -11.7082,10.1117 -16.2318,17.5623 -9.5795,12.2404 -8.7811,13.0388 -11.7083,20.4893 -4.2575,4.7898 -3.4593,1.5965 H 603.8083 595.82542 284.49308 l -3.19315,-1.0643 -3.45926,-2.9272 -2.12876,-3.9914 -0.26622,-3.1932 v -279.4008 l 0.26622,-3.1931 2.92705,-4.7897 2.66097,-1.5966 5.32191,-1.5965 5.10281,0.1049 312.08365,-0.1049 V 691.30815 h 12.77261 v -302.8172 h -6.3863 v -75.5713 h 6.3863 v -143.1597 h -6.3863 V 94.188753 h 6.3863 z"
       id="path2448" />
    <path
       style="fill:none;stroke:#ff0000;stroke-width:3.01716;stroke-dasharray:none;stroke-opacity:1"
       d="m 694.81321,366.67105 6.3862,-6.9185 3.9915,-2.9271 8.249,-5.3219 8.7811,-3.9914 9.0473,-2.661 9.5794,-1.3305 5.0559,-0.2662 9.5794,1.0643 4.5237,1.0644 9.0472,2.9271 4.5236,1.8627 4.2576,2.6609 4.2575,2.661 4.2576,-3.7254 6.3863,-0.2662 3.1931,1.3305 4.5237,3.9915 5.0557,6.6523 4.2576,6.3863 1.3305,5.322 -1.3305,5.3219 -5.3219,4.2575 1.3305,4.5237 1.8627,9.3133 0.5322,4.7897 v 9.5795 l -1.5966,9.5795 -2.661,9.5794 -4.7897,8.5151 -2.661,3.9914 -6.1203,7.4507 -7.1845,6.3863 -3.7254,2.9271 -8.515,4.2575 0.5322,4.7897 -0.5322,4.2576 -2.3949,2.661 -1.5966,1.5965 -2.927,1.0644 -4.7897,1.5966 -4.7898,0.5322 -2.661,0.5322 h -6.1201 l -4.5237,-0.5322 -3.1931,-1.5966 -2.1288,-2.3949 -1.5966,-5.0558 v -2.661 l -9.5794,-2.1287 -4.5236,-1.8627 -4.5237,-1.8626 -3.9914,-2.3949 -3.9915,-2.3949 -3.7254,-3.1931 -3.7253,-3.1932 -3.1931,-3.4592 -3.1932,-3.4593 -2.6609,-3.9914 -2.6609,-3.9915 -2.1289,-4.5236 -3.4592,-9.0473 -1.3305,-4.5236 -0.5321,-4.7897 -0.5322,-4.7898 v -10.1116 l -3.1932,-0.5322 -3.4592,-2.9271 -1.8628,-2.927 -0.5322,-5.322 1.3305,-4.7897 2.3949,-6.9185 2.1288,-4.2575 3.1932,-5.3219 4.7896,-2.9271 5.322,-0.2662 z"
       id="path2450" />
    <path
       style="fill:none;stroke:#ff0000;stroke-width:3.01716;stroke-dasharray:none;stroke-opacity:1"
       d="m 947.60431,354.69665 0.5322,0.7983 4.2576,-2.6609 4.2576,-2.661 4.5235,-1.8627 4.5237,-1.8626 9.0473,-2.1288 4.78963,-0.5322 9.5796,-0.2662 4.7896,0.2662 9.57946,2.1288 9.0473,3.1931 4.2575,2.3949 8.249,5.3219 3.9915,2.9271 3.1931,3.4592 3.1931,3.4593 5.3218,-2.1288 4.2576,0.2662 3.9914,2.1288 3.9915,6.1202 2.6609,5.3219 2.1288,6.9185 1.0644,5.8542 -1.5966,5.3219 -2.3949,2.3948 -2.9271,1.8627 h -2.1287 v 10.1116 l -1.0644,9.5795 -1.3305,4.5236 -3.4593,9.0473 -4.7896,8.5151 -2.6609,3.9914 -3.1933,3.4593 -3.193,3.4592 -3.7254,3.1932 -7.7168,5.588 -8.515,4.2575 -9.3134,2.9271 -4.78966,1.0643 v 2.661 l -1.5966,5.0558 -5.3218,3.9915 -4.5237,0.5322 h -6.1202 l -9.57953,-1.5966 -4.7898,-1.5966 -3.1931,-3.1931 -2.1287,-4.7898 0.2662,-4.7897 -3.9914,-3.1931 -7.9829,-5.0559 -3.7254,-2.927 -3.4592,-3.4593 -3.4593,-3.4592 -2.6609,-3.9915 -5.0559,-8.2489 -2.3948,-4.2576 -2.6609,-9.5794 -1.5967,-9.5795 v -4.7897 l 0.5322,-9.5795 1.8627,-9.3133 1.3305,-4.5237 -2.9271,-1.8626 -2.927,-4.5237 -0.7983,-5.3219 3.1932,-6.3863 5.854,-7.9829 2.3949,-2.6609 7.9829,-4.7898 5.3219,0.5322 z"
       id="path2452" />
    <path
       style="fill:none;stroke:#ff0000;stroke-width:3.01716;stroke-dasharray:none;stroke-opacity:1"
       d="m 942.81461,540.69785 -48.9617,-118.6789 -3.1931,-5.8541 -2.1288,-2.6609 -4.7897,-4.5237 -2.661,-1.8626 -6.3863,-2.661 -6.3863,-1.5966 -9.5794,0.7983 -6.3864,2.1288 -5.854,3.1931 -4.7898,4.5237 -3.7254,5.588 -1.5965,2.927 -3.2082,8.6238 -4.1294,9.9996 -41.6241,100.0555 -0.5322,4.2575 2.3949,8.7812 1.8627,6.6524 4.7897,12.7725 2.3949,6.3864 2.3949,6.3863 5.8541,12.2404 3.1931,6.1202 3.1931,6.1202 3.1932,5.8542 3.1931,5.854 3.7254,5.8541 3.7253,5.8542 3.9914,5.588 3.9915,5.5881 5.322,5.854 3.1931,2.1288 6.6524,3.7253 7.4507,2.3949 7.7168,0.7982 h 3.7254 l 7.9829,-1.5965 6.9184,-3.1931 3.1932,-2.1288 5.8541,-5.0558 2.6609,-2.927 7.9829,-11.1761 3.7253,-5.8542 6.9185,-11.7081 6.3864,-11.9744 3.1931,-6.1202 2.9271,-6.1202 5.3219,-12.5065 2.3949,-6.3864 2.1287,-6.3862 2.1288,-6.3863 2.1288,-6.6524 2.1287,-6.9185 0.5322,-1.8627 z"
       id="path2454" />
    <path
       style="fill:none;stroke:#ff0000;stroke-width:3.01716;stroke-dasharray:none;stroke-opacity:1"
       d="m 744.57311,716.85345 11.9743,0.7983 11.9743,2.1287 17.2963,5.588 16.2318,8.5151 14.6353,10.6438 12.2405,13.5709 3.7253,4.5236 6.3863,10.6439 5.3219,4.7897 4.7897,1.0645 h 9.0473 l 2.927,-5.5881 3.4593,-5.588 h 1.0644 l 6.3863,10.6438 4.7898,0.5323 h 5.854 l 6.3863,-3.1933 5.322,-7.9828 6.9185,-9.8456 7.9829,-9.0473 9.0472,-8.2489 9.8455,-6.9185 5.0559,-3.1932 11.176,-5.3219 5.588,-2.1288 11.7082,-3.4592 11.9744,-2.1287 11.97433,-0.7983 12.2404,0.7983 6.12006,0.7982 11.7083,2.661 11.7082,4.2575 10.6438,5.3219 10.1116,6.3863 4.7898,3.7254 9.0472,7.9829 7.9829,9.0472 6.9185,10.1117 5.8541,10.9099 4.5236,11.1761 3.1932,11.442 2.1288,11.9743 0.5322,12.2405 -1.0644,12.2404 -2.1288,11.9743 -3.4592,11.4422 -4.7898,11.176 -6.1202,10.6438 -7.1846,9.5795 -8.2489,8.7812 -14.1031,11.7082 -10.1117,6.3863 -11.1759,4.7897 -11.7082,3.7253 -17.82846,3.1933 -12.2404,0.2661 -11.97433,-1.0643 -11.7082,-2.1288 -11.7083,-3.7254 -5.854,-2.3948 -6.6525,-0.7983 -4.5236,1.0644 -7.1846,5.3219 -1.8627,4.2575 -0.5322,6.6524 1.5966,4.7898 15.9658,29.8027 h -146.885 l 15.9658,-29.8027 1.5965,-6.9185 -0.5322,-4.5237 -3.1932,-6.1202 -5.854,-3.4592 -4.5237,-1.0644 -6.6524,0.7983 -5.854,2.3948 -11.7083,3.7254 -11.7082,2.1288 -5.8541,0.7983 -12.2405,0.5321 -12.2404,-1.0643 -11.7082,-2.661 -11.7082,-3.7254 -5.5881,-2.3948 -10.6438,-5.588 -9.8456,-6.9185 -9.3133,-7.9829 -8.249,-8.7812 -3.7253,-4.5236 -6.9185,-10.1117 -5.322,-11.176 -4.2574,-11.1761 -1.3305,-5.854 -2.1289,-11.9744 -0.7982,-6.1202 -0.5322,-12.2404 1.5965,-12.2404 2.6611,-11.7082 3.7253,-11.176 2.6609,-5.588 5.8541,-10.9099 6.9185,-10.1118 3.7253,-4.7896 8.5152,-8.5151 9.5794,-7.4507 10.1117,-6.3863 10.6439,-5.322 11.7081,-4.2574 11.7082,-2.6611 6.1202,-0.7982 z"
       id="path2456" />
    <path
       style="fill:none;stroke:#ff0000;stroke-width:3.01716"
       d="m 825.73241,1030.3145 86.2151,0.5322 10.3777,3.7254 9.3133,5.854 6.6525,8.5152 3.1931,6.6523 2.3949,10.3778 -0.5322,10.9099 -1.8627,6.9185 -1.3305,3.4594 -3.7253,6.3862 -2.3949,2.6609 -5.3219,4.7898 -9.8456,5.3219 -6.9184,2.1288 h -93.6658 l -3.4593,-1.0644 -6.9184,-2.6609 -6.3864,-3.7254 -5.3219,-4.7898 -6.1202,-9.0471 -2.661,-6.9187 -1.5965,-6.9184 v -7.4507 l 1.5965,-6.9185 2.661,-6.9185 1.8627,-3.1931 4.2575,-5.8541 8.249,-6.9185 6.9185,-3.1932 6.9185,-2.1288 z"
       id="path546" />
    <path
       style="fill:none;stroke:#ff0000;stroke-width:3.01716"
       d="m 1066.017,1044.4176 75.3052,-0.2663 4.2574,1.0644 5.322,2.1289 5.3219,5.854 2.1288,5.3219 13.3048,48.4295 0.5322,4.2576 -1.5966,7.9829 -4.7897,6.9185 -5.0559,3.4592 -3.9914,1.0644 h -90.7387 l -7.7168,-1.3305 -3.7253,-1.0644 -7.4507,-3.7253 -3.1932,-2.3949 -3.1932,-2.3948 -2.6609,-2.9271 -2.6609,-2.9271 -4.2575,-6.9185 -1.3305,-3.7253 -2.1287,-7.7168 -0.7983,-7.9829 v -3.9914 l 1.5966,-7.9829 1.3304,-3.7253 1.3305,-3.7253 4.2575,-6.9186 2.6609,-2.927 2.6609,-2.9271 6.3864,-4.7897 7.4507,-3.1931 3.7253,-1.3306 3.7253,-1.3305 z"
       id="path548" />
  </g>
  <g
     inkscape:groupmode="layer"
     id="layer3"
     inkscape:label="chassis" />
</svg>
